<svg width="20" height="20" viewBox="0 0 20 20" fill="none" xmlns="http://www.w3.org/2000/svg">
<path d="M5.83337 11.6667C5.46961 11.6672 5.11035 11.7471 4.78066 11.9008C4.45097 12.0546 4.1588 12.2784 3.92454 12.5567C3.69027 12.8349 3.51956 13.161 3.42431 13.5121C3.32907 13.8631 3.31158 14.2308 3.37308 14.5893C3.43458 14.9478 3.57358 15.2886 3.78037 15.5879C3.98717 15.8871 4.25678 16.1377 4.57039 16.322C4.884 16.5063 5.23406 16.62 5.59613 16.655C5.9582 16.6901 6.32356 16.6457 6.66671 16.525" stroke="#FFB21E" stroke-width="1.25" stroke-linecap="round" stroke-linejoin="round"/>
<path d="M3.55336 13.0042C3.05467 12.7641 2.6236 12.4036 2.29907 11.9552C1.97454 11.5069 1.76677 10.9848 1.6945 10.436C1.62222 9.88727 1.68773 9.32917 1.8851 8.81208C2.08248 8.29498 2.4055 7.83518 2.82503 7.47415M2.85003 7.40665C2.57673 6.99769 2.45695 6.50522 2.51188 6.01643C2.56681 5.52763 2.79292 5.07404 3.15018 4.73594C3.50743 4.39785 3.97279 4.19706 4.46387 4.16913C4.95495 4.14119 5.44007 4.28792 5.83336 4.58332M6.0317 4.63749C5.89876 4.35502 5.831 4.04629 5.83343 3.73412C5.83585 3.42195 5.90841 3.11431 6.04572 2.83395C6.18304 2.55359 6.38161 2.30767 6.62675 2.11438C6.87189 1.92108 7.15734 1.78535 7.462 1.71722C7.76666 1.64908 8.08273 1.65029 8.38686 1.72074C8.69099 1.79119 8.9754 1.92909 9.21906 2.12425C9.46272 2.3194 9.65941 2.56683 9.79459 2.84822C9.92977 3.12962 9.99998 3.4378 10 3.74999V16.6667C10 17.1087 9.82443 17.5326 9.51187 17.8452C9.19931 18.1577 8.77539 18.3333 8.33336 18.3333C7.89134 18.3333 7.46741 18.1577 7.15485 17.8452C6.84229 17.5326 6.6667 17.1087 6.6667 16.6667M10 5.83332C10 6.49636 10.2634 7.13224 10.7323 7.60109C11.2011 8.06993 11.837 8.33332 12.5 8.33332M14.1667 11.6667C14.5305 11.6672 14.8897 11.7471 15.2194 11.9008C15.5491 12.0545 15.8413 12.2784 16.0755 12.5566C16.3098 12.8349 16.4805 13.161 16.5758 13.5121C16.671 13.8631 16.6885 14.2308 16.627 14.5893C16.5655 14.9478 16.4265 15.2886 16.2197 15.5879C16.0129 15.8871 15.7433 16.1377 15.4297 16.322C15.1161 16.5063 14.766 16.6199 14.4039 16.655C14.0419 16.6901 13.6765 16.6457 13.3334 16.525" stroke="#FFB21E" stroke-width="1.25" stroke-linecap="round" stroke-linejoin="round"/>
<path d="M16.4467 13.0042C16.9454 12.7641 17.3764 12.4036 17.701 11.9552C18.0255 11.5069 18.2333 10.9848 18.3055 10.436C18.3778 9.88727 18.3123 9.32917 18.1149 8.81208C17.9176 8.29498 17.5945 7.83518 17.175 7.47415M17.15 7.40665C17.4233 6.99769 17.5431 6.50522 17.4881 6.01643C17.4332 5.52763 17.2071 5.07404 16.8499 4.73594C16.4926 4.39785 16.0272 4.19706 15.5362 4.16913C15.0451 4.14119 14.56 4.28792 14.1667 4.58332M10 3.74999C10.0001 3.4378 10.0703 3.12962 10.2054 2.84822C10.3406 2.56683 10.5373 2.3194 10.781 2.12425C11.0246 1.92909 11.309 1.79119 11.6132 1.72074C11.9173 1.65029 12.2334 1.64908 12.538 1.71722C12.8427 1.78535 13.1281 1.92108 13.3733 2.11438C13.6184 2.30767 13.817 2.55359 13.9543 2.83395C14.0916 3.11431 14.1642 3.42195 14.1666 3.73412C14.169 4.04629 14.1013 4.35502 13.9683 4.63749M13.3333 16.6667C13.3333 17.1087 13.1577 17.5326 12.8452 17.8452C12.5326 18.1577 12.1087 18.3333 11.6667 18.3333C11.2246 18.3333 10.8007 18.1577 10.4882 17.8452C10.1756 17.5326 10 17.1087 10 16.6667" stroke="#FFB21E" stroke-width="1.25" stroke-linecap="round" stroke-linejoin="round"/>
</svg>
